# xmcd
#
# Track frame offsets: 
#        150
#        21447
#        34940
#        47587
#        58102
#        72645
#        94097
#        106752
#        121675
#        137610
#        151012
#        165465
#        177670
#        188367
#        202617
#        215407
#        232925
#        254062
#        264412
#
# Disc length: 3774 seconds
#
# Revision: 2
# Processed by: cddbd v1.5.2PL0 Copyright (c) Steve Scherf et al.
# Submitted via: ExactAudioCopyFreeDBPlugin 1.0
#
DISCID=fd0ebc13
DTITLE=Uncle Tupelo - No Depression
DYEAR=2003
DGENRE=Alternative Country
TTITLE0=Graveyard Shift
TTITLE1=That Year
TTITLE2=Before I Break
TTITLE3=No Depression
TTITLE4=Factory Belt
TTITLE5=Whisky Bottle
TTITLE6=Outdone
TTITLE7=Train
TTITLE8=Life Worth Livin'
TTITLE9=Flatness
TTITLE10=So Called Friend
TTITLE11=Screen Door
TTITLE12=John Hardy
TTITLE13=Left In The Dark
TTITLE14=Won't Forget
TTITLE15=Sin City
TTITLE16=Whiskey Bottle (Live Acoustic)
TTITLE17=No Depression (1988 Demo)
TTITLE18=Blues Die Hard
EXTD=
EXTT0=
EXTT1=
EXTT2=
EXTT3=
EXTT4=
EXTT5=
EXTT6=
EXTT7=
EXTT8=
EXTT9=
EXTT10=
EXTT11=
EXTT12=
EXTT13=
EXTT14=
EXTT15=
EXTT16=
EXTT17=
EXTT18=
PLAYORDER=
